HIERARCHY
ROOT Hips
{
 OFFSET 0.000000 0.000000 0.000000
 CHANNELS 6 Xposition Yposition Zposition Yrotation Xrotation Zrotation
 JOINT Chest
 {
  OFFSET 0.000000 10.383400 0.001500
  CHANNELS 3 Yrotation Xrotation Zrotation
  JOINT Chest2
  {
   OFFSET 0.000000 10.418200 -0.003100
   CHANNELS 3 Yrotation Xrotation Zrotation
   JOINT Chest3
   {
    OFFSET 0.000000 10.375100 0.000000
    CHANNELS 3 Yrotation Xrotation Zrotation
    JOINT Chest4
    {
     OFFSET 0.000000 10.364600 0.000000
     CHANNELS 3 Yrotation Xrotation Zrotation
     JOINT Neck
     {
      OFFSET 0.000000 15.642200 0.000000
      CHANNELS 3 Yrotation Xrotation Zrotation
      JOINT Head
      {
       OFFSET 0.000000 9.697300 -0.006500
       CHANNELS 3 Yrotation Xrotation Zrotation
       End Site
       {
        OFFSET 0.000000 18.492200 -0.003400
       }
      }
     }
     JOINT RightCollar
     {
      OFFSET -3.166800 10.349300 0.000000
      CHANNELS 3 Yrotation Xrotation Zrotation
      JOINT RightShoulder
      {
       OFFSET -14.729700 0.000000 0.000000
       CHANNELS 3 Yrotation Xrotation Zrotation
       JOINT RightElbow
       {
        OFFSET 0.000000 -32.224300 0.000000
        CHANNELS 3 Yrotation Xrotation Zrotation
        JOINT RightWrist
        {
         OFFSET 0.000000 -26.084100 0.000000
         CHANNELS 3 Yrotation Xrotation Zrotation
         End Site
         {
          OFFSET 0.000000 -19.319400 0.000000
         }
        }
       }
      }
     }
     JOINT LeftCollar
     {
      OFFSET 3.166800 10.349300 0.000000
      CHANNELS 3 Yrotation Xrotation Zrotation
      JOINT LeftShoulder
      {
       OFFSET 14.729700 0.000000 0.000000
       CHANNELS 3 Yrotation Xrotation Zrotation
       JOINT LeftElbow
       {
        OFFSET 0.000000 -32.224300 0.000000
        CHANNELS 3 Yrotation Xrotation Zrotation
        JOINT LeftWrist
        {
         OFFSET 0.000000 -26.084100 0.000000
         CHANNELS 3 Yrotation Xrotation Zrotation
         End Site
         {
          OFFSET 0.000000 -19.319400 0.000000
         }
        }
       }
      }
     }
    }
   }
  }
 }
 JOINT RightHip
 {
  OFFSET -8.428900 -0.007500 -0.000800
  CHANNELS 3 Yrotation Xrotation Zrotation
  JOINT RightKnee
  {
   OFFSET 0.000000 -43.834600 0.000700
   CHANNELS 3 Yrotation Xrotation Zrotation
   JOINT RightAnkle
   {
    OFFSET 0.000000 -42.757000 0.001200
    CHANNELS 3 Yrotation Xrotation Zrotation
    JOINT RightToe
    {
     OFFSET 0.000000 -6.946900 15.649300
     CHANNELS 3 Yrotation Xrotation Zrotation
     End Site
     {
      OFFSET 0.000000 -1.580800 6.825800
     }
    }
   }
  }
 }
 JOINT LeftHip
 {
  OFFSET 8.428900 -0.007500 -0.000800
  CHANNELS 3 Yrotation Xrotation Zrotation
  JOINT LeftKnee
  {
   OFFSET 0.000000 -43.834600 0.000700
   CHANNELS 3 Yrotation Xrotation Zrotation
   JOINT LeftAnkle
   {
    OFFSET 0.000000 -42.757000 0.001200
    CHANNELS 3 Yrotation Xrotation Zrotation
    JOINT LeftToe
    {
     OFFSET 0.000000 -6.946900 15.649300
     CHANNELS 3 Yrotation Xrotation Zrotation
     End Site
     {
      OFFSET 0.000000 -1.580800 6.825800
     }
    }
   }
  }
 }
}
MOTION
Frames: 7
Frame Time: 0.008333
0.000000 93.354300 0.000000 0.000000 -5.767877 0.000000 0.000000 11.653817 0.000000 0.000000 -5.885947 0.000000 0.000000 -0.000000 0.000000 0.000000 -0.000000 0.000000 0.000000 12.528835 0.000000 0.000000 0.711642 0.000000 0.000000 -0.000000 0.000000 0.000000 0.000000 -90.000000 0.000000 -2.309062 0.000000 0.000000 2.309062 0.000000 0.000000 -0.000000 0.000000 0.000000 -0.000000 90.000000 0.000000 -2.309062 0.000000 0.000000 2.309062 0.000000 0.000000 8.520406 0.000000 0.000000 1.905762 0.000000 -0.000000 -4.658285 0.000000 0.000000 -0.000000 0.000000 0.000000 8.520406 0.000000 0.000000 1.905762 0.000000 -0.000000 -4.658285 0.000000 0.000000 -0.000000 0.000000
129.660266 127.060945 5.485262 -14.543047 -30.898500 -1.721318 -1.217944 17.777820 1.913192 -0.165093 1.955601 0.227592 -0.261632 3.251166 0.375337 -1.094363 15.540037 1.689404 2.845127 14.186948 -1.222064 5.818038 -9.337230 -3.394236 -5.586941 -3.745905 -5.139244 2.747985 -4.771323 -3.986427 44.710831 -59.451524 -17.011686 9.610650 13.089285 -16.893078 -0.560206 -4.773017 -2.609102 3.593900 0.720712 5.951861 -41.879494 -65.745156 16.898246 -29.204268 7.497951 11.412415 -4.219978 -38.568534 -0.806526 -24.823343 70.018727 -24.270164 -1.342006 0.382503 4.824682 -0.000515 -0.005897 -0.000228 -3.195716 -31.477732 -8.288696 1.439690 65.955191 2.191367 -12.283021 -1.424708 -2.989994 0.001310 0.001199 0.000582
129.660467 127.060946 5.484968 -14.548415 -30.898314 -1.718492 -1.216449 17.775850 1.912795 -0.165064 1.954181 0.226122 -0.261227 3.251567 0.375940 -1.092389 15.541821 1.688773 2.842791 14.185563 -1.224719 5.816773 -9.334194 -3.395708 -5.590295 -3.743851 -5.141572 2.727734 -4.771591 -3.958314 44.728851 -59.440692 -17.020402 9.594058 13.081132 -16.893122 -0.558941 -4.772516 -2.608659 3.596145 0.719711 5.950985 -41.869947 -65.755939 16.892364 -29.211869 7.504424 11.405822 -4.218870 -38.568125 -0.804809 -24.803228 70.019547 -24.249941 -1.349924 0.381534 4.820050 0.001713 -0.005272 0.000760 -3.193249 -31.480216 -8.288824 1.437196 65.958554 2.190901 -12.290199 -1.425662 -2.993184 0.001041 0.000814 0.000462
129.660642 127.060984 5.484666 -14.543905 -30.898200 -1.721168 -1.223746 17.774121 1.910338 -0.164266 1.951505 0.227249 -0.263895 3.253473 0.374661 -1.098023 15.540765 1.687732 2.844897 14.187179 -1.226424 5.817660 -9.330562 -3.402432 -5.582457 -3.739412 -5.147190 2.719522 -4.772002 -3.943010 44.740217 -59.435814 -17.025863 9.587448 13.078675 -16.890861 -0.539540 -4.770711 -2.609037 3.592040 0.721936 5.947387 -41.872169 -65.761444 16.894428 -29.204848 7.508295 11.403697 -4.226932 -38.569326 -0.804152 -24.788321 70.022469 -24.236721 -1.352492 0.383238 4.818319 0.001603 -0.007152 0.000712 -3.211185 -31.485417 -8.282235 1.443837 65.962367 2.190659 -12.302202 -1.424834 -2.997222 -0.000239 0.000032 -0.000106
129.660933 127.061133 5.484564 -14.541967 -30.899419 -1.721810 -1.225865 17.769796 1.909900 -0.165529 1.954668 0.226996 -0.263416 3.248237 0.374713 -1.101097 15.538035 1.687189 2.844716 14.190887 -1.227360 5.817650 -9.323413 -3.405535 -5.586704 -3.729149 -5.150942 2.717975 -4.772161 -3.932186 44.717125 -59.436744 -17.009135 9.607300 13.075706 -16.882453 -0.535028 -4.760194 -2.609380 3.595611 0.722748 5.943225 -41.882394 -65.762658 16.902403 -29.200053 7.507799 11.400848 -4.222172 -38.568370 -0.810463 -24.787295 70.024476 -24.229062 -1.354105 0.384691 4.816272 0.001675 -0.006644 0.000743 -3.214392 -31.485106 -8.282314 1.441934 65.963762 2.188556 -12.301811 -1.425676 -2.998717 -0.000303 0.000252 -0.000135
129.660621 127.061415 5.484477 -14.544060 -30.901964 -1.723625 -1.228473 17.769516 1.910257 -0.163067 1.956037 0.227620 -0.266522 3.246119 0.374898 -1.102768 15.536867 1.689255 2.845231 14.193257 -1.230614 5.820383 -9.320686 -3.410788 -5.583008 -3.723531 -5.155881 2.711486 -4.770764 -3.924514 44.718632 -59.439266 -17.013131 9.613503 13.074467 -16.875735 -0.527172 -4.753252 -2.612295 3.596648 0.721565 5.940119 -41.879593 -65.766076 16.893290 -29.196152 7.510613 11.403577 -4.211033 -38.567079 -0.815159 -24.797151 70.026693 -24.229288 -1.348606 0.384962 4.813902 0.003113 -0.007783 0.001382 -3.223902 -31.484446 -8.274314 1.447243 65.965828 2.189884 -12.309772 -1.425804 -3.000246 -0.001099 0.000765 -0.000488
129.660663 127.061476 5.484113 -14.548931 -30.902285 -1.722363 -1.225170 17.767294 1.911732 -0.163411 1.955799 0.227471 -0.270388 3.244211 0.373826 -1.106829 15.532068 1.687789 2.849794 14.200012 -1.232875 5.823233 -9.318299 -3.410693 -5.576631 -3.712693 -5.156714 2.700911 -4.767297 -3.916457 44.738860 -59.437558 -17.033295 9.614128 13.069934 -16.874866 -0.514145 -4.739181 -2.607150 3.600711 0.715574 5.931550 -41.877553 -65.763745 16.889173 -29.195729 7.504913 11.398684 -4.204498 -38.567613 -0.815857 -24.803447 70.028399 -24.232576 -1.348476 0.381162 4.813208 0.003450 -0.008016 0.001531 -3.228845 -31.484762 -8.269867 1.454630 65.966603 2.193169 -12.304613 -1.428082 -3.003122 -0.001038 0.000641 -0.000461
